<svg width="96" height="96" viewBox="0 0 96 96" fill="none" xmlns="http://www.w3.org/2000/svg">
<path fill-rule="evenodd" clip-rule="evenodd" d="M96 0H2.09815e-06L0 15L2.09815e-06 30V63H30L30 30H96V0Z" fill="#EC5938"/>
<rect x="0.5" y="0.5" width="95" height="95" stroke="#C4CFE2"/>
<path d="M50.292 18V13.992C50.292 12.684 49.488 12.024 47.904 12.024C47.34 12.024 46.92 12.096 46.584 12.264C46.296 12.408 46.152 12.54 45.84 12.9L46.428 13.44C46.644 13.152 46.764 13.044 46.968 12.948C47.208 12.828 47.496 12.768 47.88 12.768C48.96 12.768 49.428 13.164 49.428 14.064V14.628H47.652C46.38 14.628 45.612 15.264 45.612 16.332C45.612 17.46 46.344 18.072 47.712 18.072C48.168 18.072 48.48 18.036 48.756 17.916C48.996 17.82 49.14 17.712 49.428 17.436V18H50.292ZM49.428 15.276V15.912C49.428 16.92 48.984 17.328 47.88 17.328C46.884 17.328 46.452 17.028 46.452 16.32C46.452 15.624 46.896 15.276 47.772 15.276H49.428Z" fill="white"/>
<path d="M17.592 48.072C17.592 46.236 16.848 45.144 15.324 45.144C14.676 45.144 13.884 45.492 13.596 46.08H13.56C13.584 45.6 13.548 44.412 14.22 43.788C14.916 43.152 16.38 43.248 17.136 43.152V42.36C16.224 42.456 14.652 42.348 13.752 43.176C12.912 43.944 12.876 45.096 12.876 46.884C12.876 47.736 12.9 48.828 13.104 49.476C13.404 50.46 14.148 51.072 15.24 51.072C15.9 51.072 16.488 50.844 16.896 50.424C17.388 49.92 17.592 49.248 17.592 48.072ZM15.24 45.912C15.636 45.912 16.032 46.068 16.296 46.356C16.62 46.704 16.728 47.172 16.728 48.12C16.728 49.032 16.608 49.512 16.296 49.848C16.032 50.148 15.648 50.304 15.24 50.304C14.832 50.304 14.436 50.148 14.172 49.848C13.848 49.5 13.74 49.032 13.74 48.096C13.74 47.172 13.86 46.692 14.172 46.356C14.436 46.068 14.832 45.912 15.24 45.912Z" fill="white"/>
</svg>
