<svg width="96" height="96" viewBox="0 0 96 96" fill="none" xmlns="http://www.w3.org/2000/svg">
<rect width="96" height="30" fill="#EC5938"/>
<rect x="0.5" y="0.5" width="95" height="95" stroke="#C4CFE2"/>
<path d="M50.292 19V14.992C50.292 13.684 49.488 13.024 47.904 13.024C47.34 13.024 46.92 13.096 46.584 13.264C46.296 13.408 46.152 13.54 45.84 13.9L46.428 14.44C46.644 14.152 46.764 14.044 46.968 13.948C47.208 13.828 47.496 13.768 47.88 13.768C48.96 13.768 49.428 14.164 49.428 15.064V15.628H47.652C46.38 15.628 45.612 16.264 45.612 17.332C45.612 18.46 46.344 19.072 47.712 19.072C48.168 19.072 48.48 19.036 48.756 18.916C48.996 18.82 49.14 18.712 49.428 18.436V19H50.292ZM49.428 16.276V16.912C49.428 17.92 48.984 18.328 47.88 18.328C46.884 18.328 46.452 18.028 46.452 17.32C46.452 16.624 46.896 16.276 47.772 16.276H49.428Z" fill="white"/>
</svg>
