<svg width="30" height="30" viewBox="0 0 30 30" fill="none" xmlns="http://www.w3.org/2000/svg">
<path d="M15 30C23.2843 30 30 23.2843 30 15C30 6.71573 23.2843 0 15 0C6.71573 0 0 6.71573 0 15C0 23.2843 6.71573 30 15 30Z" fill="url(#paint0_linear)"/>
<path fill-rule="evenodd" clip-rule="evenodd" d="M6.78977 14.8416C11.1626 12.9365 14.0785 11.6805 15.5374 11.0736C19.7031 9.34099 20.5687 9.04001 21.1329 9.03007C21.257 9.02789 21.5344 9.05864 21.7141 9.20447C21.8659 9.3276 21.9076 9.49394 21.9276 9.61069C21.9476 9.72743 21.9725 9.99338 21.9527 10.2012C21.7269 12.573 20.7502 18.3289 20.2533 20.9854C20.043 22.1095 19.629 22.4864 19.2281 22.5233C18.3571 22.6034 17.6956 21.9476 16.8519 21.3946C15.5317 20.5291 14.7859 19.9904 13.5044 19.146C12.0235 18.17 12.9835 17.6336 13.8275 16.757C14.0484 16.5276 17.8864 13.0367 17.9607 12.72C17.9699 12.6804 17.9786 12.5327 17.8909 12.4548C17.8032 12.3768 17.6737 12.4035 17.5803 12.4247C17.4479 12.4547 15.3389 13.8487 11.2532 16.6066C10.6546 17.0177 10.1123 17.218 9.62652 17.2075C9.09094 17.1959 8.0607 16.9047 7.29483 16.6557C6.35545 16.3504 5.60886 16.1889 5.67387 15.6703C5.70773 15.4002 6.0797 15.124 6.78977 14.8416Z" fill="white"/>
<defs>
<linearGradient id="paint0_linear" x1="15" y1="0" x2="15" y2="29.7775" gradientUnits="userSpaceOnUse">
<stop stop-color="#2AABEE"/>
<stop offset="1" stop-color="#229ED9"/>
</linearGradient>
</defs>
</svg>
